<?xml version="1.0" encoding="UTF-8"?>
<!DOCTYPE svg PUBLIC "-//W3C//DTD SVG 1.1//EN" "http://www.w3.org/Graphics/SVG/1.1/DTD/svg11.dtd">
<svg xmlns="http://www.w3.org/2000/svg" version="1.1" width="512px" height="512px" style="shape-rendering:geometricPrecision; text-rendering:geometricPrecision; image-rendering:optimizeQuality; fill-rule:evenodd; clip-rule:evenodd" xmlns:xlink="http://www.w3.org/1999/xlink">
<g><path style="opacity:0.97" fill="#000001" d="M 511.5,225.5 C 511.5,234.167 511.5,242.833 511.5,251.5C 505.858,279.987 489.858,300.487 463.5,313C 469.223,317.501 471.39,323.335 470,330.5C 462.219,350.729 453.885,370.729 445,390.5C 440.282,395.739 434.449,397.572 427.5,396C 416.594,391.629 405.761,387.129 395,382.5C 390.711,388.458 386.044,394.124 381,399.5C 374.981,405.02 368.814,410.353 362.5,415.5C 367.962,427.556 372.629,439.889 376.5,452.5C 375.97,457.393 373.97,461.56 370.5,465C 350.949,473.609 331.282,481.942 311.5,490C 303.272,491.796 296.772,489.296 292,482.5C 287.904,471.811 283.404,461.311 278.5,451C 263.165,451.642 247.831,451.642 232.5,451C 227.717,462.685 222.551,474.185 217,485.5C 212.034,490.089 206.2,491.589 199.5,490C 182.614,482.724 165.614,475.724 148.5,469C 138.655,466.131 134.155,459.631 135,449.5C 139.088,438.159 143.588,426.992 148.5,416C 142.333,410.5 136.167,405 130,399.5C 124.956,394.124 120.289,388.458 116,382.5C 105.239,387.129 94.4057,391.629 83.5,396C 76.6251,397.479 70.7918,395.646 66,390.5C 56.6458,369.465 48.1458,348.132 40.5,326.5C 40.5847,320.83 42.9181,316.33 47.5,313C 51.4189,311.138 55.4189,309.471 59.5,308C 26.0089,289.353 6.00887,261.186 -0.5,223.5C -0.5,213.5 -0.5,203.5 -0.5,193.5C 12.7051,132.978 50.3717,100.645 112.5,96.5C 133.386,52.5393 168.053,27.3727 216.5,21C 276.836,17.8189 320.503,42.9856 347.5,96.5C 388.992,99.7098 418.326,120.043 435.5,157.5C 476.918,162.254 502.251,184.921 511.5,225.5 Z M 158.5,319.5 C 223.17,319.167 287.837,319.5 352.5,320.5C 327.764,362.038 291.097,381.205 242.5,378C 204.492,372.524 176.492,353.024 158.5,319.5 Z"/></g>
<g><path style="opacity:1" fill="#01a8f2" d="M 295.5,59.5 C 302.528,67.7054 309.028,76.372 315,85.5C 318.549,91.9297 321.549,98.5964 324,105.5C 326.719,106.444 329.552,106.777 332.5,106.5C 333.129,109.64 334.796,112.14 337.5,114C 350.567,113.985 363.233,116.152 375.5,120.5C 390.334,132.02 401,146.687 407.5,164.5C 411.687,166.065 416.02,166.732 420.5,166.5C 421.432,169.87 423.432,172.37 426.5,174C 432.676,174.032 438.676,174.865 444.5,176.5C 473.674,197.847 483.508,226.18 474,261.5C 468.504,277.844 458.671,290.844 444.5,300.5C 442.518,300.995 440.518,301.495 438.5,302C 325.167,302.667 211.833,302.667 98.5,302C 57.4868,294.321 30.9868,270.488 19,230.5C 11.3691,188.711 24.5357,155.211 58.5,130C 78.0628,117.818 99.3961,112.485 122.5,114C 127.94,103.621 133.774,93.4542 140,83.5C 175.063,40.772 218.896,28.272 271.5,46C 280.305,49.2316 288.305,53.7316 295.5,59.5 Z"/></g>
<g><path style="opacity:1" fill="#010305" d="M 211.5,55.5 C 216.179,55.3342 220.845,55.5008 225.5,56C 230.833,61 230.833,66 225.5,71C 205.743,72.459 190.243,81.2924 179,97.5C 174.569,104.788 170.902,112.455 168,120.5C 162.698,124.776 158.031,124.109 154,118.5C 153.953,109.895 156.286,101.895 161,94.5C 172.389,74.3955 189.222,61.3955 211.5,55.5 Z"/></g>
<g><path style="opacity:1" fill="#0275b9" d="M 295.5,59.5 C 311.963,71.9573 324.296,87.624 332.5,106.5C 329.552,106.777 326.719,106.444 324,105.5C 321.549,98.5964 318.549,91.9297 315,85.5C 309.028,76.372 302.528,67.7054 295.5,59.5 Z"/></g>
<g><path style="opacity:1" fill="#0275b9" d="M 375.5,120.5 C 396.769,129.707 411.769,145.04 420.5,166.5C 416.02,166.732 411.687,166.065 407.5,164.5C 401,146.687 390.334,132.02 375.5,120.5 Z"/></g>
<g><path style="opacity:1" fill="#010304" d="M 77.5,138.5 C 88.4109,138.161 91.7443,142.995 87.5,153C 59.1527,167.193 47.3193,190.026 52,221.5C 54.2247,231.283 58.558,239.949 65,247.5C 66.5,256.667 62.6667,260.5 53.5,259C 42.6021,247.341 36.1021,233.508 34,217.5C 32.091,181.959 46.591,155.625 77.5,138.5 Z"/></g>
<g><path style="opacity:1" fill="#010204" d="M 176.5,148.5 C 181.421,148.043 184.921,150.043 187,154.5C 198.337,188.511 209.67,222.511 221,256.5C 221.97,264.527 218.47,268.361 210.5,268C 208.714,267.215 207.214,266.049 206,264.5C 201.495,251.65 196.995,238.817 192.5,226C 183.149,225.168 173.816,225.335 164.5,226.5C 160.099,239.537 155.599,252.537 151,265.5C 145.48,269.992 140.813,269.326 137,263.5C 136.333,260.833 136.333,258.167 137,255.5C 148.469,220.759 160.136,186.093 172,151.5C 173.652,150.601 175.152,149.601 176.5,148.5 Z"/></g>
<g><path style="opacity:1" fill="#010305" d="M 276.5,216.5 C 266.5,216.5 256.5,216.5 246.5,216.5C 246.5,231.5 246.5,246.5 246.5,261.5C 243.616,268.439 238.949,269.939 232.5,266C 231.54,264.581 230.707,263.081 230,261.5C 229.013,225.082 229.347,188.749 231,152.5C 232.214,150.951 233.714,149.785 235.5,149C 249.167,148.333 262.833,148.333 276.5,149C 302.555,156.277 311.389,172.777 303,198.5C 297.123,208.855 288.289,214.855 276.5,216.5 Z"/></g>
<g><path style="opacity:1" fill="#010305" d="M 313.5,251.5 C 319.833,251.5 326.167,251.5 332.5,251.5C 332.5,222.833 332.5,194.167 332.5,165.5C 326.167,165.5 319.833,165.5 313.5,165.5C 309.194,164.432 306.861,161.598 306.5,157C 306.969,153.196 308.969,150.529 312.5,149C 331.167,148.333 349.833,148.333 368.5,149C 374.092,151.402 375.925,155.569 374,161.5C 372.833,162.667 371.667,163.833 370.5,165C 363.508,165.5 356.508,165.666 349.5,165.5C 349.5,194.167 349.5,222.833 349.5,251.5C 356.947,251.071 364.281,251.571 371.5,253C 374.902,256.719 375.402,260.886 373,265.5C 371.581,266.46 370.081,267.293 368.5,268C 359.167,268.167 349.833,268.333 340.5,268.5C 330.405,268.643 320.405,268.143 310.5,267C 304.458,260.413 305.458,255.246 313.5,251.5 Z"/></g>
<g><path style="opacity:1" fill="#014461" d="M 276.5,166.5 C 266.833,166.5 257.167,166.5 247.5,166.5C 247.5,177.5 247.5,188.5 247.5,199.5C 256.5,199.5 265.5,199.5 274.5,199.5C 265.348,200.494 256.015,200.827 246.5,200.5C 246.5,188.833 246.5,177.167 246.5,165.5C 256.681,165.173 266.681,165.506 276.5,166.5 Z"/></g>
<g><path style="opacity:1" fill="#01a8f3" d="M 276.5,166.5 C 289.095,171.369 292.595,180.036 287,192.5C 283.898,196.8 279.731,199.133 274.5,199.5C 265.5,199.5 256.5,199.5 247.5,199.5C 247.5,188.5 247.5,177.5 247.5,166.5C 257.167,166.5 266.833,166.5 276.5,166.5 Z"/></g>
<g><path style="opacity:1" fill="#0180ba" d="M 313.5,165.5 C 319.833,165.5 326.167,165.5 332.5,165.5C 332.5,194.167 332.5,222.833 332.5,251.5C 326.167,251.5 319.833,251.5 313.5,251.5C 319.31,250.51 325.31,250.177 331.5,250.5C 331.5,222.5 331.5,194.5 331.5,166.5C 325.31,166.823 319.31,166.49 313.5,165.5 Z"/></g>
<g><path style="opacity:1" fill="#0275b9" d="M 444.5,176.5 C 475.415,184.801 492.081,204.968 494.5,237C 494.192,261.962 483.525,280.962 462.5,294C 456.808,297.064 450.808,299.23 444.5,300.5C 458.671,290.844 468.504,277.844 474,261.5C 483.508,226.18 473.674,197.847 444.5,176.5 Z"/></g>
<g><path style="opacity:1" fill="#019ee4" d="M 178.5,184.5 C 181.739,192.216 184.405,200.216 186.5,208.5C 181.125,208.828 175.792,208.495 170.5,207.5C 173.176,199.805 175.842,192.138 178.5,184.5 Z"/></g>
<g><path style="opacity:1" fill="#015479" d="M 276.5,216.5 C 267.014,217.494 257.348,217.827 247.5,217.5C 247.829,232.343 247.496,247.01 246.5,261.5C 246.5,246.5 246.5,231.5 246.5,216.5C 256.5,216.5 266.5,216.5 276.5,216.5 Z"/></g>
<g><path style="opacity:1" fill="#5f7c8a" d="M 430.5,319.5 C 431.458,320.962 432.624,322.295 434,323.5C 434.667,325.5 434.667,327.5 434,329.5C 428.482,343.926 422.315,357.926 415.5,371.5C 408.755,369.298 402.089,366.798 395.5,364C 392.833,363.333 390.167,363.333 387.5,364C 383.953,368.041 380.62,372.208 377.5,376.5C 373.362,375.23 369.362,373.563 365.5,371.5C 354.167,387.5 340.5,401.167 324.5,412.5C 329.959,424.711 335.126,437.045 340,449.5C 341.035,454.922 338.869,458.422 333.5,460C 324.582,463.804 315.582,467.304 306.5,470.5C 301.243,458.57 296.076,446.57 291,434.5C 290.097,433.299 288.931,432.465 287.5,432C 276.045,432.842 264.545,433.342 253,433.5C 244.095,433.66 235.262,432.994 226.5,431.5C 224.701,431.577 223.034,432.077 221.5,433C 219.415,435.682 217.748,438.516 216.5,441.5C 210.752,441.209 205.085,441.209 199.5,441.5C 196.724,447.385 194.224,453.385 192,459.5C 191.186,462.177 189.686,464.177 187.5,465.5C 175.596,461.214 163.929,456.38 152.5,451C 157.796,438.906 162.962,426.74 168,414.5C 168.667,412.833 168.667,411.167 168,409.5C 156.115,399.621 144.782,388.955 134,377.5C 130.955,373.244 127.788,369.077 124.5,365C 121.298,363.517 117.964,363.183 114.5,364C 107.596,367.133 100.596,369.966 93.5,372.5C 92.8826,372.389 92.3826,372.056 92,371.5C 87.9459,373.462 83.7792,375.129 79.5,376.5C 72.3308,360.814 65.6641,344.814 59.5,328.5C 59.8178,327.353 60.4844,326.519 61.5,326C 69.2767,322.695 77.1101,319.528 85,316.5C 88.7503,317.708 92.5836,318.542 96.5,319C 110.5,319.333 124.5,319.667 138.5,320C 158.321,361.088 190.654,386.088 235.5,395C 290.907,400.541 334.074,380.375 365,334.5C 367.898,329.871 370.398,325.037 372.5,320C 391.83,319.5 411.164,319.333 430.5,319.5 Z M 158.5,319.5 C 176.492,353.024 204.492,372.524 242.5,378C 291.097,381.205 327.764,362.038 352.5,320.5C 287.837,319.5 223.17,319.167 158.5,319.5 Z"/></g>
<g><path style="opacity:1" fill="#36464e" d="M 430.5,319.5 C 438.167,321.445 445.5,324.278 452.5,328C 445.296,344.907 437.962,361.74 430.5,378.5C 425.312,376.338 420.312,374.005 415.5,371.5C 422.315,357.926 428.482,343.926 434,329.5C 434.667,327.5 434.667,325.5 434,323.5C 432.624,322.295 431.458,320.962 430.5,319.5 Z"/></g>
<g><path style="opacity:1" fill="#36464e" d="M 377.5,376.5 C 366.752,388.418 355.252,399.418 343,409.5C 342.333,411.167 342.333,412.833 343,414.5C 348.038,426.74 353.204,438.906 358.5,451C 341.541,458.264 324.541,465.431 307.5,472.5C 306.702,472.043 306.369,471.376 306.5,470.5C 315.582,467.304 324.582,463.804 333.5,460C 338.869,458.422 341.035,454.922 340,449.5C 335.126,437.045 329.959,424.711 324.5,412.5C 340.5,401.167 354.167,387.5 365.5,371.5C 369.362,373.563 373.362,375.23 377.5,376.5 Z"/></g>
<g><path style="opacity:1" fill="#36464f" d="M 93.5,372.5 C 89.126,374.578 84.626,376.578 80,378.5C 79.5357,377.906 79.369,377.239 79.5,376.5C 83.7792,375.129 87.9459,373.462 92,371.5C 92.3826,372.056 92.8826,372.389 93.5,372.5 Z"/></g>
<g><path style="opacity:1" fill="#37474f" d="M 216.5,441.5 C 212.45,451.936 208.117,462.269 203.5,472.5C 198.065,470.143 192.732,467.809 187.5,465.5C 189.686,464.177 191.186,462.177 192,459.5C 194.224,453.385 196.724,447.385 199.5,441.5C 205.085,441.209 210.752,441.209 216.5,441.5 Z"/></g>
</svg>
